<svg width="181" height="61" viewBox="0 0 181 61" fill="none" xmlns="http://www.w3.org/2000/svg">
<path d="M13.8485 0.00256348H27.5253C28.0962 0.00256348 28.5599 0.456742 28.5599 1.01697V14.4368C28.5599 14.9751 28.3415 15.4914 27.9539 15.8717L16.2271 27.3769C15.8395 27.7579 15.3132 27.9715 14.7646 27.9715H1.08785C0.516868 27.9715 0.0532227 27.5173 0.0532227 26.9571V13.5372C0.0532227 12.9989 0.271625 12.4833 0.659239 12.1023L12.386 0.597164C12.7736 0.216122 13.2999 0.00256348 13.8485 0.00256348Z" fill="white"/>
<path d="M48.0327 0.00256348H34.3559C33.7842 0.00256348 33.3213 0.456742 33.3213 1.01697V14.4368C33.3213 14.9751 33.5397 15.4914 33.9273 15.8717L45.6533 27.3769C46.0417 27.7579 46.5672 27.9715 47.1166 27.9715H60.7933C61.3643 27.9715 61.8272 27.5173 61.8272 26.9571V13.5372C61.8272 12.9989 61.6095 12.4833 61.2219 12.1023L49.4952 0.597164C49.1076 0.216122 48.5813 0.00256348 48.0327 0.00256348Z" fill="white"/>
<path d="M48.0327 60.6867H34.3559C33.7842 60.6867 33.3213 60.2325 33.3213 59.6723V46.2524C33.3213 45.7141 33.5397 45.1978 33.9273 44.8175L45.6533 33.3116C46.0417 32.9313 46.5672 32.7178 47.1166 32.7178H60.7933C61.3643 32.7178 61.8272 33.1719 61.8272 33.7322V47.152C61.8272 47.6903 61.6095 48.2059 61.2219 48.587L49.4952 60.0921C49.1076 60.4731 48.5813 60.6867 48.0327 60.6867Z" fill="white"/>
<path d="M13.8485 60.6867H27.5253C28.0962 60.6867 28.5599 60.2325 28.5599 59.6723V46.2524C28.5599 45.7141 28.3415 45.1978 27.9539 44.8175L16.2271 33.3116C15.8395 32.9313 15.3132 32.7178 14.7646 32.7178H1.08785C0.516868 32.7178 0.0532227 33.1719 0.0532227 33.7322V47.152C0.0532227 47.6903 0.271625 48.2059 0.659239 48.587L12.386 60.0921C12.7736 60.4731 13.2999 60.6867 13.8485 60.6867Z" fill="white"/>
<path d="M129.92 27.3051C130.527 25.1351 131.73 23.3703 133.53 22.0085C135.328 20.6475 137.486 19.9658 140.001 19.9658C142.213 19.9658 144.164 20.5941 145.856 21.8484C147.546 23.1041 148.695 24.923 149.303 27.3051H129.92ZM130.309 33.5597H136.403H155.873C155.959 32.7516 156.025 32.0919 156.068 31.5814C156.11 31.0709 156.133 30.7096 156.133 30.4968C156.133 28.1988 155.742 26.0398 154.962 24.0183C154.181 21.9983 153.086 20.2211 151.677 18.6896C150.268 17.1581 148.576 15.9448 146.604 15.0518C144.63 14.158 142.43 13.7112 140.001 13.7112C137.53 13.7112 135.263 14.1259 133.204 14.956C131.144 15.7861 129.367 16.9453 127.87 18.4343C126.375 19.9241 125.204 21.6794 124.358 23.6995C123.512 25.721 123.09 27.9436 123.09 30.3688C123.09 31.4775 123.188 32.5366 123.359 33.5597C123.359 33.5597 123.541 34.8213 123.95 35.9769C124.077 36.3675 124.202 36.758 124.358 37.1332C125.204 39.1759 126.395 40.9304 127.935 42.399C129.474 43.8662 131.296 45.0056 133.4 45.813C135.501 46.6212 137.791 47.0257 140.262 47.0257C143.166 47.0257 145.823 46.3879 148.23 45.1109C150.636 43.8347 152.663 42.1116 154.312 39.9416L148.588 36.7507C147.59 37.9852 146.397 38.9638 145.011 39.6864C143.622 40.4104 142.061 40.7717 140.327 40.7717C137.725 40.7717 135.501 40.1128 133.659 38.7927C132.565 38.0108 131.708 37.0593 131.035 35.9769C130.75 35.5249 130.277 34.5412 130.309 33.5597Z" fill="white"/>
<path d="M172.317 8.00279C173.496 7.08712 175.566 6.88746 177.299 6.88746L180.945 6.84431V0.888794H176.124C172.709 0.888794 169.901 1.89954 167.798 3.91957C165.694 5.9418 164.644 8.66029 164.644 11.4731V14.4183H158.066V20.2897H164.644V46.3286H171.018V20.2897H180.945V14.4183H171.018V12.2257C171.018 10.8178 171.138 8.91846 172.317 8.00279Z" fill="white"/>
<path d="M77.5786 46.7645H83.7317V14.7686H77.5786V46.7645Z" fill="white"/>
<path d="M86.7283 30.262C86.7283 20.8047 93.8984 13.7112 103.538 13.7112C111.179 13.7112 117.938 18.2669 119.407 25.9374H112.53C111.296 21.9581 107.71 19.7669 103.538 19.7669C97.5427 19.7669 93.4288 24.1492 93.4288 30.262C93.4288 36.4325 97.6604 40.7578 103.479 40.7578C107.71 40.7578 111.296 38.4511 112.53 34.5295H119.407C117.879 42.3727 111.061 46.8128 103.479 46.8128C93.8984 46.8128 86.7283 39.72 86.7283 30.262Z" fill="white"/>
</svg>
