<svg width="14" height="16" viewBox="0 0 14 16" fill="none" xmlns="http://www.w3.org/2000/svg">
<path d="M7 8.66675C8.10457 8.66675 9 7.77132 9 6.66675C9 5.56218 8.10457 4.66675 7 4.66675C5.89543 4.66675 5 5.56218 5 6.66675C5 7.77132 5.89543 8.66675 7 8.66675Z" stroke="#4A90CA" stroke-width="1.5" stroke-linecap="round" stroke-linejoin="round"/>
<path d="M7.00001 1.33337C5.58552 1.33337 4.22896 1.89528 3.22877 2.89547C2.22858 3.89567 1.66667 5.25222 1.66667 6.66671C1.66667 7.92804 1.93467 8.75337 2.66667 9.66671L7.00001 14.6667L11.3333 9.66671C12.0653 8.75337 12.3333 7.92804 12.3333 6.66671C12.3333 5.25222 11.7714 3.89567 10.7712 2.89547C9.77105 1.89528 8.41449 1.33337 7.00001 1.33337V1.33337Z" stroke="#4A90CA" stroke-width="1.5" stroke-linecap="round" stroke-linejoin="round"/>
</svg>
